<svg width="27" height="27" viewBox="0 0 27 27" fill="none" xmlns="http://www.w3.org/2000/svg">
<g clip-path="url(#clip0_1_303)">
<path d="M2.53125 2.53125H9.28125V0.84375H0.84375V9.28125H2.53125V2.53125Z" fill="url(#paint0_linear_1_303)"/>
<path d="M9.28125 9.28125V4.21875H4.21875V9.28125H9.28125ZM5.90625 5.90625H7.59375V7.59375H5.90625V5.90625ZM17.2969 2.53125H24.4688V9.28125H26.1562V0.84375H17.2969V2.53125Z" fill="url(#paint1_linear_1_303)"/>
<path d="M22.7812 9.28125V4.21875H17.7188V9.28125H22.7812ZM19.4062 5.90625H21.0938V7.59375H19.4062V5.90625ZM9.28125 24.4688H2.53125V17.7188H0.84375V26.1562H9.28125V24.4688Z" fill="url(#paint2_linear_1_303)"/>
<path d="M9.28125 17.7188H4.21875V22.7812H9.28125V17.7188ZM7.59375 21.0938H5.90625V19.4062H7.59375V21.0938ZM24.4688 24.4688H17.2969V26.1562H26.1562V17.7188H24.4688V24.4688Z" fill="url(#paint3_linear_1_303)"/>
<path d="M14.3438 16.0312H21.0938V19.4062H22.7812V14.3438H14.3438V16.0312Z" fill="url(#paint4_linear_1_303)"/>
<path d="M22.7812 22.7812V21.0938H12.6562V14.3438H4.21875V16.0312H10.9688V22.7812H22.7812ZM10.9688 4.21875H12.6562V9.28125H10.9688V4.21875Z" fill="url(#paint5_linear_1_303)"/>
<path d="M4.21875 12.6562H16.0312V4.21875H14.3438V10.9688H4.21875V12.6562ZM17.7188 10.9688H22.7812V12.6562H17.7188V10.9688ZM17.7188 17.7188H19.4062V19.4062H17.7188V17.7188ZM14.3438 17.7188H16.0312V19.4062H14.3438V17.7188Z" fill="url(#paint6_linear_1_303)"/>
</g>
<defs>
<linearGradient id="paint0_linear_1_303" x1="10.7323" y1="6.46875" x2="-0.0172021" y2="4.42801" gradientUnits="userSpaceOnUse">
<stop stop-color="#F5B7CA"/>
<stop offset="0.69936" stop-color="#A83F98"/>
<stop offset="1" stop-color="#81017F"/>
</linearGradient>
<linearGradient id="paint1_linear_1_303" x1="29.9289" y1="6.46875" x2="6.64568" y2="-5.02382" gradientUnits="userSpaceOnUse">
<stop stop-color="#F5B7CA"/>
<stop offset="0.69936" stop-color="#A83F98"/>
<stop offset="1" stop-color="#81017F"/>
</linearGradient>
<linearGradient id="paint2_linear_1_303" x1="26.5539" y1="18.8437" x2="-1.39473" y2="13.5378" gradientUnits="userSpaceOnUse">
<stop stop-color="#F5B7CA"/>
<stop offset="0.69936" stop-color="#A83F98"/>
<stop offset="1" stop-color="#81017F"/>
</linearGradient>
<linearGradient id="paint3_linear_1_303" x1="29.9289" y1="23.3437" x2="6.64568" y2="11.8512" gradientUnits="userSpaceOnUse">
<stop stop-color="#F5B7CA"/>
<stop offset="0.69936" stop-color="#A83F98"/>
<stop offset="1" stop-color="#81017F"/>
</linearGradient>
<linearGradient id="paint4_linear_1_303" x1="24.2323" y1="17.7187" x2="14.1089" y2="14.5156" gradientUnits="userSpaceOnUse">
<stop stop-color="#F5B7CA"/>
<stop offset="0.69936" stop-color="#A83F98"/>
<stop offset="1" stop-color="#81017F"/>
</linearGradient>
<linearGradient id="paint5_linear_1_303" x1="25.9735" y1="16.5937" x2="2.32466" y2="12.1041" gradientUnits="userSpaceOnUse">
<stop stop-color="#F5B7CA"/>
<stop offset="0.69936" stop-color="#A83F98"/>
<stop offset="1" stop-color="#81017F"/>
</linearGradient>
<linearGradient id="paint6_linear_1_303" x1="25.9735" y1="14.3437" x2="2.72406" y2="8.9491" gradientUnits="userSpaceOnUse">
<stop stop-color="#F5B7CA"/>
<stop offset="0.69936" stop-color="#A83F98"/>
<stop offset="1" stop-color="#81017F"/>
</linearGradient>
<clipPath id="clip0_1_303">
<rect width="27" height="27" fill="white"/>
</clipPath>
</defs>
</svg>
