<svg width="19" height="21" viewBox="0 0 19 21" fill="none" xmlns="http://www.w3.org/2000/svg">
<path d="M13.1719 21C13.0642 21 12.9617 20.9432 12.9057 20.8465C12.8359 20.7259 12.8559 20.5734 12.9545 20.4748C14.6136 18.8156 15.3864 16.8455 15.3864 14.2746C15.3864 14.1047 15.5241 13.967 15.694 13.967C15.8639 13.967 16.0016 14.1047 16.0016 14.2746C16.0016 16.5442 15.401 18.4366 14.1711 20.0248C15.4937 19.4629 16.4806 18.5971 17.057 17.4826C17.7624 16.1186 17.8613 14.3846 17.3429 12.4682L15.4408 5.43604C15.4194 5.35704 15.4304 5.27279 15.4713 5.20188C15.5123 5.13096 15.5798 5.07936 15.6589 5.05836C15.823 5.01481 15.9924 5.11246 16.0359 5.27669C16.0377 5.2837 16.0393 5.29076 16.0407 5.29781L17.9368 12.3075C18.496 14.375 18.3808 16.2623 17.6035 17.7652C16.7983 19.3222 15.2937 20.4371 13.2523 20.9893C13.2256 20.9965 13.1986 21 13.1719 21ZM5.11348 21C5.08682 21 5.05983 20.9965 5.03313 20.9893C2.99174 20.4371 1.48713 19.3222 0.681913 17.7652C-0.0953316 16.2623 -0.210585 14.375 0.348662 12.3076L2.24239 5.30643C2.24407 5.29597 2.24629 5.28551 2.24908 5.27517C3.08715 2.16923 5.9219 0 9.14268 0C10.5255 0 11.8671 0.395964 13.0223 1.14507C14.1473 1.87462 15.0422 2.90046 15.6102 4.11164C15.6823 4.26545 15.6161 4.44867 15.4623 4.52077C15.3084 4.59308 15.1253 4.52676 15.0531 4.37291C14.534 3.2659 13.716 2.32821 12.6875 1.66133C11.6322 0.976949 10.4065 0.615233 9.14268 0.615233C6.20974 0.615233 3.6272 2.58316 2.85127 5.40515C2.84958 5.41549 2.84737 5.42582 2.84462 5.43604L0.942526 12.4682C0.42413 14.3846 0.522978 16.1186 1.22836 17.4826C1.80475 18.5972 2.79167 19.4629 4.11426 20.0248C2.88437 18.4366 2.28378 16.5442 2.28378 14.2746C2.28378 14.1047 2.42151 13.967 2.59139 13.967C2.76128 13.967 2.89901 14.1047 2.89901 14.2746C2.89901 16.8455 3.67178 18.8156 5.33094 20.4748C5.4295 20.5734 5.44948 20.7259 5.37967 20.8465C5.32368 20.9432 5.22123 21 5.11348 21ZM11.3263 21C11.2476 21 11.1688 20.9699 11.1088 20.9099C10.9886 20.7897 10.9886 20.595 11.1088 20.4748C12.0463 19.5373 12.7007 18.5006 13.0928 17.3123C12.2941 16.9867 11.3199 16.7674 10.2596 16.6756C10.0903 16.661 9.96496 16.512 9.9796 16.3427C9.99425 16.1735 10.1433 16.0479 10.3126 16.0628C11.4069 16.1574 12.42 16.3829 13.2638 16.718C13.4499 15.9664 13.5407 15.1558 13.5407 14.2748V6.63664C13.5407 5.89635 13.3948 5.17879 13.1166 4.51675C12.7853 6.09803 11.7017 7.43788 10.1741 8.07489L4.74475 10.3389V12.7289C4.74475 12.8988 4.60702 13.0365 4.43713 13.0365C4.26725 13.0365 4.12952 12.8988 4.12952 12.7289V10.141C4.12943 10.1364 4.12943 10.1317 4.12952 10.1271V6.6366C4.12952 5.01181 4.7614 3.48509 5.90881 2.33768C6.02895 2.21759 6.22373 2.21759 6.34382 2.33768C6.46396 2.45786 6.46396 2.6526 6.34382 2.77273C5.31265 3.8039 4.74475 5.17612 4.74475 6.63656V9.67229L6.23763 9.04975C7.39214 8.56651 8.36207 7.7681 9.04301 6.74049C9.72149 5.71658 10.0801 4.51634 10.0801 3.26964C10.0801 3.09971 10.2178 2.96202 10.3877 2.96202C10.5576 2.96202 10.6953 3.09971 10.6953 3.26964C10.6953 4.63767 10.3013 5.95533 9.55591 7.08031C9.35022 7.39067 9.12074 7.68192 8.8696 7.95226L9.93732 7.50703C11.5303 6.84271 12.5722 5.30516 12.6068 3.57688C12.4131 3.29129 12.1909 3.02207 11.9416 2.77277C11.8215 2.6526 11.8215 2.45786 11.9416 2.33772C12.0618 2.21763 12.2565 2.21763 12.3766 2.33772C13.524 3.48513 14.1559 5.01181 14.1559 6.63664V14.2746C14.1559 16.9817 13.3015 19.1522 11.5438 20.9098C11.4837 20.9699 11.405 21 11.3263 21ZM6.95914 21C6.88043 21 6.80168 20.9699 6.74163 20.9099C4.98395 19.1522 4.12947 16.9818 4.12947 14.2747C4.12947 14.1048 4.2672 13.9671 4.43709 13.9671C4.60698 13.9671 4.74471 14.1048 4.74471 14.2747C4.74471 15.1557 4.83547 15.9663 5.02156 16.7179C6.16729 16.2626 7.61346 16.0134 9.13472 16.0125H9.13489C9.30473 16.0125 9.44242 16.1501 9.4425 16.32C9.44259 16.4898 9.30494 16.6277 9.13505 16.6277C7.66387 16.6286 6.27463 16.8707 5.1926 17.3122C5.58458 18.5006 6.23907 19.5373 7.1766 20.4748C7.29674 20.595 7.29674 20.7898 7.1766 20.9099C7.1166 20.9699 7.03789 21 6.95914 21Z" fill="url(#paint0_linear_136_26)"/>
<defs>
<linearGradient id="paint0_linear_136_26" x1="21.4301" y1="14" x2="-2.06346" y2="10.1164" gradientUnits="userSpaceOnUse">
<stop stop-color="#F5B7CA"/>
<stop offset="0.69936" stop-color="#A83F98"/>
<stop offset="1" stop-color="#81017F"/>
</linearGradient>
</defs>
</svg>
