<svg width="17" height="17" viewBox="0 0 17 17" fill="none" xmlns="http://www.w3.org/2000/svg">
<path opacity="0.5" d="M13.2812 6.37499V6.87366C13.2812 7.4722 13.4512 8.05728 13.7714 8.55524L14.5562 9.7757C15.2724 10.8906 14.7255 12.4057 13.4796 12.7578C10.2239 13.6798 6.77612 13.6798 3.52041 12.7578C2.27446 12.4057 1.72762 10.8906 2.44375 9.7757L3.22858 8.55524C3.54961 8.05317 3.71996 7.46959 3.71946 6.87366V6.37499C3.71946 3.63657 5.86004 1.41666 8.5 1.41666C11.14 1.41666 13.2812 3.63657 13.2812 6.37499Z" fill="#81017F"/>
<path d="M5.13046 13.136C5.36191 13.8473 5.8125 14.4671 6.41771 14.9066C7.02292 15.3461 7.75169 15.5828 8.49965 15.5828C9.24761 15.5828 9.97638 15.3461 10.5816 14.9066C11.1868 14.4671 11.6374 13.8473 11.8688 13.136C9.64113 13.554 7.35888 13.554 5.13046 13.136Z" fill="#81017F"/>
</svg>
